<?xml version="1.0" encoding="utf-8"?>
<!-- Generator: Adobe Illustrator 19.0.0, SVG Export Plug-In . SVG Version: 6.00 Build 0)  -->
<svg version="1.1" id="Layer_1" xmlns="http://www.w3.org/2000/svg" xmlns:xlink="http://www.w3.org/1999/xlink" x="0px" y="0px"
	 viewBox="-49 141 512 512" style="enable-background:new -49 141 512 512;" xml:space="preserve">
<style type="text/css">
	.st0{fill:#008000;}
</style>
<g id="icomoon-ignore">
</g>
<path class="st0" d="M456.7,208.2c-55.4-42-140.6-67-228-67c-108.1,0-196.1,37.7-241.6,103.5C-34.2,275.6-46,312.2-48,353.5
	c-1.7,36.7,4.4,77.4,18.3,121.1C17.8,332.4,150.3,221,303,221c0,0-142.9,37.6-232.8,154.1c-0.1,0.1-1.2,1.5-3.3,4.3
	c-18,24.1-33.8,51.6-45.5,82.7C1.5,509.5-17,574.6-17,653h64c0,0-9.7-61.1,7.2-131.4c27.9,3.8,52.9,5.7,75.4,5.7
	c58.8,0,100.7-12.7,131.7-40.1c27.8-24.5,43.1-57.4,59.3-92.2c24.8-53.2,52.8-113.5,134.3-160.1c4.7-2.7,7.7-7.5,8-12.9
	S460.9,211.5,456.7,208.2L456.7,208.2z"/>
</svg>
